<?xml version="1.0" encoding="UTF-8" standalone="no"?>
<!-- Created with Inkscape (http://www.inkscape.org/) -->

<svg
   xmlns:dc="http://purl.org/dc/elements/1.1/"
   xmlns:cc="http://creativecommons.org/ns#"
   xmlns:rdf="http://www.w3.org/1999/02/22-rdf-syntax-ns#"
   xmlns:svg="http://www.w3.org/2000/svg"
   xmlns="http://www.w3.org/2000/svg"
   version="1.1"
   width="184.03125"
   height="184"
   id="svg5508">
  <defs
     id="defs5510" />
  <metadata
     id="metadata5513">
    <rdf:RDF>
      <cc:Work
         rdf:about="">
        <dc:format>image/svg+xml</dc:format>
        <dc:type
           rdf:resource="http://purl.org/dc/dcmitype/StillImage" />
        <dc:title></dc:title>
      </cc:Work>
    </rdf:RDF>
  </metadata>
  <g
     transform="translate(-353.6875,-397.50447)"
     id="layer1">
    <g
       transform="translate(336.61782,-413.35456)"
       id="g4854"
       style="display:inline">
      <path
         d="m 206.42857,122.71932 a 83.214287,83.214287 0 1 1 -166.42857,0 83.214287,83.214287 0 1 1 166.42857,0 z"
         transform="translate(-14.117817,780.14028)"
         id="path3769-9-5-1-5-4"
         style="fill:none;stroke:#000000;stroke-width:17.60000038;stroke-miterlimit:4;stroke-dasharray:none" />
      <path
         d="m 45.800033,869.82825 61.962687,-9.11147 c 0,0 -36.043467,30.6695 -32.13591,30.0949 3.907556,-0.57459 29.45807,8.76215 29.45807,8.76215 l -22.394821,17.20536 27.719541,15.56475 -61.466258,8.22009 z"
         id="path4705"
         style="fill:#000000;fill-opacity:1;stroke:#000000;stroke-width:1.33819973px;stroke-linecap:butt;stroke-linejoin:miter;stroke-opacity:1" />
      <path
         d="m 144.55524,862.68555 c 0,0 -40.39442,9.48455 -37.62935,10.58932 2.76508,1.10476 25.91877,24.20636 25.91877,24.20636 l -27.47655,4.9503 20.11615,28.12079 33.57895,11.3386 12.61915,-70.44456 z"
         id="path4709"
         style="fill:#000000;fill-opacity:1;stroke:#000000;stroke-width:1.11851573px;stroke-linecap:butt;stroke-linejoin:miter;stroke-opacity:1" />
    </g>
  </g>
</svg>
