<?xml version="1.0" encoding="UTF-8" standalone="no"?>
<!-- Created with Inkscape (http://www.inkscape.org/) -->

<svg
   xmlns:dc="http://purl.org/dc/elements/1.1/"
   xmlns:cc="http://creativecommons.org/ns#"
   xmlns:rdf="http://www.w3.org/1999/02/22-rdf-syntax-ns#"
   xmlns:svg="http://www.w3.org/2000/svg"
   xmlns="http://www.w3.org/2000/svg"
   version="1.1"
   width="184.03125"
   height="184"
   id="svg5007">
  <defs
     id="defs5009" />
  <metadata
     id="metadata5012">
    <rdf:RDF>
      <cc:Work
         rdf:about="">
        <dc:format>image/svg+xml</dc:format>
        <dc:type
           rdf:resource="http://purl.org/dc/dcmitype/StillImage" />
        <dc:title></dc:title>
      </cc:Work>
    </rdf:RDF>
  </metadata>
  <g
     transform="translate(-222.25893,-351.79018)"
     id="layer1">
    <g
       transform="translate(-31.714283,318.57143)"
       id="g4801"
       style="display:inline">
      <path
         d="m 206.42857,122.71932 a 83.214287,83.214287 0 1 1 -166.42857,0 83.214287,83.214287 0 1 1 166.42857,0 z"
         transform="translate(222.78571,2.5000029)"
         id="path3769-9"
         style="fill:none;stroke:#000000;stroke-width:17.60000038;stroke-miterlimit:4;stroke-dasharray:none" />
      <path
         d="m 362.85713,127.00504 a 16.071428,16.071428 0 1 1 -32.14285,0 16.071428,16.071428 0 1 1 32.14285,0 z"
         transform="matrix(1.1131542,0,0,1.1131542,-1.5587895,15.75635)"
         id="path3862"
         style="fill:#000000;fill-opacity:1;stroke:none" />
      <path
         d="m 362.85713,127.00504 a 16.071428,16.071428 0 1 1 -32.14285,0 16.071428,16.071428 0 1 1 32.14285,0 z"
         transform="matrix(1.1131542,0,0,1.1131542,-40.081861,15.75635)"
         id="path3862-4"
         style="fill:#000000;fill-opacity:1;stroke:none" />
      <path
         d="m 362.85713,127.00504 a 16.071428,16.071428 0 1 1 -32.14285,0 16.071428,16.071428 0 1 1 32.14285,0 z"
         transform="matrix(1.1131542,0,0,1.1131542,-78.207406,15.75635)"
         id="path3862-8"
         style="fill:#000000;fill-opacity:1;stroke:none" />
      <path
         d="m 362.85713,127.00504 a 16.071428,16.071428 0 1 1 -32.14285,0 16.071428,16.071428 0 1 1 32.14285,0 z"
         transform="matrix(1.1131542,0,0,1.1131542,-1.5587895,-25.231553)"
         id="path3862-82"
         style="fill:#000000;fill-opacity:1;stroke:none" />
      <path
         d="m 362.85713,127.00504 a 16.071428,16.071428 0 1 1 -32.14285,0 16.071428,16.071428 0 1 1 32.14285,0 z"
         transform="matrix(1.1131542,0,0,1.1131542,-40.081861,-61.766892)"
         id="path3862-45"
         style="fill:#000000;fill-opacity:1;stroke:none" />
    </g>
  </g>
</svg>
