<?xml version="1.0" encoding="UTF-8" standalone="no"?>
<!-- Created with Inkscape (http://www.inkscape.org/) -->

<svg
   xmlns:dc="http://purl.org/dc/elements/1.1/"
   xmlns:cc="http://creativecommons.org/ns#"
   xmlns:rdf="http://www.w3.org/1999/02/22-rdf-syntax-ns#"
   xmlns:svg="http://www.w3.org/2000/svg"
   xmlns="http://www.w3.org/2000/svg"
   version="1.1"
   width="184.03125"
   height="184"
   id="svg5148">
  <defs
     id="defs5150" />
  <metadata
     id="metadata5153">
    <rdf:RDF>
      <cc:Work
         rdf:about="">
        <dc:format>image/svg+xml</dc:format>
        <dc:type
           rdf:resource="http://purl.org/dc/dcmitype/StillImage" />
        <dc:title></dc:title>
      </cc:Work>
    </rdf:RDF>
  </metadata>
  <g
     transform="translate(-445.11607,-120.36161)"
     id="layer1">
    <g
       transform="translate(421.98546,-179.09627)"
       id="g4830"
       style="display:inline">
      <path
         d="m 206.42857,122.71932 a 83.214287,83.214287 0 1 1 -166.42857,0 83.214287,83.214287 0 1 1 166.42857,0 z"
         transform="translate(-8.0568938,268.73913)"
         id="path3769-9-5-1"
         style="fill:none;stroke:#000000;stroke-width:17.60000038;stroke-miterlimit:4;stroke-dasharray:none" />
      <path
         d="m 76.051116,358.42344 0,87.07656 76.367184,0 0,-87.07656 -76.367184,0 z m 18.040623,7.79844 3.30625,0 0,69.82656 -3.30625,0 0,-69.82656 z m 17.250001,0 3.30625,0 0,69.82656 -3.30625,0 0,-69.82656 z m 17.25,0 3.30625,0 0,69.82656 -3.30625,0 0,-69.82656 z"
         id="rect4477"
         style="fill:#000000;fill-opacity:1;stroke:none" />
      <rect
         width="82.14286"
         height="13.964286"
         x="48.878979"
         y="348.108"
         transform="matrix(0.99747035,-0.07108377,0.07108377,0.99747035,0,0)"
         id="rect4550"
         style="fill:#000000;fill-opacity:1;stroke:none" />
      <path
         d="m 124.28572,324.86218 a 9.6428576,7.5 0 1 1 -19.28572,0 9.6428576,7.5 0 1 1 19.28572,0 z"
         transform="matrix(1.1470909,-0.08174634,0.08174634,1.1470909,-44.852607,-22.76345)"
         id="path4554"
         style="fill:#000000;fill-opacity:1;stroke:none" />
    </g>
  </g>
</svg>
