<?xml version="1.0" encoding="UTF-8" standalone="no"?>
<!-- Created with Inkscape (http://www.inkscape.org/) -->

<svg
   xmlns:dc="http://purl.org/dc/elements/1.1/"
   xmlns:cc="http://creativecommons.org/ns#"
   xmlns:rdf="http://www.w3.org/1999/02/22-rdf-syntax-ns#"
   xmlns:svg="http://www.w3.org/2000/svg"
   xmlns="http://www.w3.org/2000/svg"
   version="1.1"
   width="184.03125"
   height="184"
   id="svg5453">
  <defs
     id="defs5455" />
  <metadata
     id="metadata5458">
    <rdf:RDF>
      <cc:Work
         rdf:about="">
        <dc:format>image/svg+xml</dc:format>
        <dc:type
           rdf:resource="http://purl.org/dc/dcmitype/StillImage" />
        <dc:title></dc:title>
      </cc:Work>
    </rdf:RDF>
  </metadata>
  <g
     transform="translate(-533.6875,-474.64733)"
     id="layer1">
    <g
       transform="translate(57.428569,-85.999995)"
       id="g4846"
       style="display:inline">
      <path
         d="m 206.42857,122.71932 a 83.214287,83.214287 0 1 1 -166.42857,0 83.214287,83.214287 0 1 1 166.42857,0 z"
         transform="translate(445.07143,529.92857)"
         id="path3769-9-5-1-5-5"
         style="fill:none;stroke:#000000;stroke-width:17.60000038;stroke-miterlimit:4;stroke-dasharray:none" />
      <path
         d="m 529.17241,608.11235 c 74.73051,0 80.0684,-0.88966 80.0684,-0.88966 l 20.46194,27.48702 -57.8272,73.95947 -63.87051,-73.95947 z"
         id="path4608"
         style="fill:none;stroke:#000000;stroke-width:9.2167635;stroke-linecap:butt;stroke-linejoin:miter;stroke-miterlimit:4;stroke-opacity:1;stroke-dasharray:none" />
      <path
         d="m 512.26909,634.8018 c 114.76472,0 114.76472,0 114.76472,0"
         id="path4610"
         style="fill:none;stroke:#000000;stroke-width:5.97844124;stroke-linecap:butt;stroke-linejoin:miter;stroke-miterlimit:4;stroke-opacity:1;stroke-dasharray:none" />
      <path
         d="m 566.53767,607.22269 c -6.22755,27.57911 -6.22755,27.57911 -6.22755,27.57911 l 14.23438,73.84088"
         id="path4612"
         style="fill:none;stroke:#000000;stroke-width:6.3520937;stroke-linecap:butt;stroke-linejoin:miter;stroke-miterlimit:4;stroke-opacity:1;stroke-dasharray:none" />
      <path
         d="m 586.99959,608.11233 c 11.56544,26.68947 11.56544,26.68947 11.56544,26.68947 l -24.02053,73.84088"
         id="path4616"
         style="fill:none;stroke:#000000;stroke-width:6.10299206;stroke-linecap:butt;stroke-linejoin:miter;stroke-miterlimit:4;stroke-opacity:1;stroke-dasharray:none" />
      <path
         d="m 543.40679,607.22269 c -8.89649,24.02052 -8.89649,24.02052 -8.89649,24.02052 l 35.58596,72.06156 0.88965,1.7793"
         id="path4618"
         style="fill:none;stroke:#000000;stroke-width:6.3520937;stroke-linecap:butt;stroke-linejoin:miter;stroke-miterlimit:4;stroke-opacity:1;stroke-dasharray:none" />
    </g>
  </g>
</svg>
